<?xml version="1.0" encoding="UTF-8"?>
<svg id="Ebene_1" data-name="Ebene 1" xmlns="http://www.w3.org/2000/svg" version="1.1" viewBox="0 0 127.56 23.97">
  <defs>
    <style>
      .cls-1 {
        fill: #fff;
        stroke-width: 0px;
      }
    </style>
  </defs>
  <path class="cls-1" d="M124.08,2.51v4.47l-3.18-4.47h-1.41v8.24h1.88v-4.47l3.18,4.47h1.41V2.51h-1.88ZM113,8.94v-1.46h2.94v-1.79h-2.94v-1.36h3.24v-1.81h-5.12v8.24h5.18v-1.81h-3.3ZM108.11,6.16h-4.13v1.65h2.2c-.29.79-1.01,1.27-2.11,1.27-1.6,0-2.59-1.02-2.59-2.42s1.04-2.47,2.42-2.47c.93,0,1.67.42,2.01.96l1.6-.92c-.69-1.11-2.02-1.88-3.6-1.88-2.43,0-4.32,1.91-4.32,4.3s1.86,4.27,4.45,4.27c2.31,0,4.06-1.53,4.06-4.05v-.71ZM93.65,8.94v-1.46h2.94v-1.79h-2.94v-1.36h3.24v-1.81h-5.12v8.24h5.18v-1.81h-3.3ZM86.17,8.94V2.51h-1.88v8.24h4.83v-1.81h-2.94ZM78.7,8.94V2.51h-1.88v8.24h4.83v-1.81h-2.94ZM69.51,9.08c-1.34,0-2.4-.98-2.4-2.45s1.06-2.45,2.4-2.45,2.4.98,2.4,2.45-1.06,2.45-2.4,2.45M69.51,10.92c2.37,0,4.28-1.86,4.28-4.28s-1.92-4.29-4.28-4.29-4.29,1.86-4.29,4.29,1.92,4.28,4.29,4.28M63.35,10.75l-2.89-4.23,2.78-4.01h-2.14l-2.52,3.58v-3.58h-1.88v8.24h1.88v-3.81l2.64,3.81h2.14ZM28.25,2.51v4.47l-3.18-4.47h-1.41v8.24h1.88v-4.47l3.18,4.47h1.41V2.51h-1.88ZM18.35,10.75h1.88V2.51h-1.88v8.24ZM11.85,8.94v-1.46h2.94v-1.79h-2.94v-1.36h3.24v-1.81h-5.12v8.24h5.18v-1.81h-3.29ZM4.65,2.51v3.15h-2.59v-3.15H.17v8.24h1.88v-3.27h2.59v3.27h1.88V2.51h-1.88Z"/>
  <path class="cls-1" d="M41.1,1.96c.19-.21.45-.32.77-.32.29,0,.54.09.73.27.2.19.3.45.3.76,0,.29-.09.53-.26.73-.13.14-.32.31-.57.48l-.29.2-.26-.24c-.22-.21-.38-.37-.48-.49-.15-.19-.22-.41-.22-.65,0-.29.09-.54.28-.74M41.42,9.6c-.22-.1-.4-.24-.54-.39-.14-.16-.24-.34-.3-.52-.06-.18-.09-.34-.09-.49,0-.29.12-.71.67-1.13.27-.21.55-.38.87-.59.39-.25.88-.56,1.44-1.02.67-.54,1.1-.98,1.3-1.33.26-.44.39-.95.39-1.51,0-.47-.09-.88-.27-1.2-.18-.33-.43-.61-.73-.82-.31-.21-.66-.37-1.05-.47-.4-.1-.82-.15-1.23-.15-.47,0-.93.07-1.32.2-.39.13-.74.31-1.02.55-.28.23-.5.52-.67.89-.16.35-.25.75-.25,1.2,0,.38.07.73.2,1.04.14.32.38.69.72,1.11l.16.19-.19.15c-.44.35-.82.77-1.14,1.25-.3.45-.46,1-.46,1.64,0,.43.08.85.25,1.28.16.41.42.8.75,1.14.33.34.75.61,1.24.82.49.21,1.08.32,1.73.32.5,0,1.01-.07,1.52-.19.4-.1.72-.19,1.08-.38l.19-.11-1.57-1.48c-.55.2-1.25.21-1.68,0"/>
  <g>
    <path class="cls-1" d="M126.9,22.67c.36,0,.66-.3.66-.66s-.3-.66-.66-.66-.66.3-.66.66.3.66.66.66M122.11,21.68c-.48,0-.83-.33-.83-.85s.35-.85.83-.85.83.33.83.85-.35.85-.83.85M122.94,17.7v1.72c-.23-.27-.57-.42-1.04-.42-.91,0-1.66.8-1.66,1.84s.75,1.84,1.66,1.84c.47,0,.81-.16,1.04-.42v.33h1.04v-4.88h-1.04ZM115.73,20.47c.1-.36.36-.55.76-.55.31,0,.63.15.74.55h-1.5ZM115.75,21.25h2.47c.03-.13.04-.27.04-.42,0-1.05-.75-1.84-1.77-1.84-1.1,0-1.85.8-1.85,1.84s.74,1.84,1.93,1.84c.66,0,1.18-.24,1.52-.72l-.84-.48c-.14.15-.38.26-.67.26-.38,0-.7-.12-.84-.49M111.25,19c-.46,0-.81.17-1,.42v-1.72h-1.04v4.88h1.04v-1.9c0-.49.27-.72.65-.72.33,0,.61.2.61.63v1.98h1.05v-2.14c0-.94-.6-1.44-1.3-1.44M105.37,20.11c0-.12.11-.19.29-.19.23,0,.37.12.47.31l.89-.48c-.29-.49-.79-.74-1.36-.74-.72,0-1.37.38-1.37,1.14,0,1.21,1.71,1,1.71,1.39,0,.14-.12.22-.38.22-.31,0-.5-.15-.59-.41l-.91.52c.27.56.8.83,1.5.83.75,0,1.45-.34,1.45-1.14,0-1.29-1.71-1.02-1.71-1.42M101.03,22.58h1.04v-3.48h-1.04v3.48ZM101.55,18.79c.34,0,.63-.29.63-.63s-.29-.63-.63-.63-.63.29-.63.63.29.63.63.63M97.66,22.58h1.04v-5.09h-1.04v5.09ZM93.64,21.68c-.48,0-.83-.33-.83-.85s.35-.85.83-.85.83.33.83.85-.35.85-.83.85M93.85,19c-.47,0-.81.16-1.04.42v-.33h-1.05v4.88h1.05v-1.72c.23.26.57.42,1.04.42.91,0,1.67-.8,1.67-1.84s-.75-1.84-1.67-1.84M88.15,19c-.49,0-.82.18-1.01.46-.2-.29-.5-.46-.91-.46-.47,0-.77.18-.93.42v-.32h-1.04v3.48h1.04v-1.96c0-.41.2-.65.54-.65s.5.22.5.57v2.05h1.05v-1.96c0-.41.19-.65.54-.65s.5.22.5.57v2.05h1.04v-2.14c0-.87-.52-1.44-1.32-1.44M80.26,21.66c-.45,0-.8-.33-.8-.82s.35-.82.8-.82.8.33.8.82-.35.82-.8.82M80.26,22.67c1.02,0,1.85-.8,1.85-1.84s-.82-1.84-1.85-1.84-1.85.8-1.85,1.84.82,1.84,1.85,1.84M75.05,22.67c.68,0,1.27-.36,1.57-.9l-.91-.52c-.11.24-.37.39-.68.39-.45,0-.79-.33-.79-.81s.33-.81.79-.81c.31,0,.56.15.68.39l.91-.53c-.3-.54-.9-.89-1.57-.89-1.06,0-1.85.8-1.85,1.84s.79,1.84,1.85,1.84M69.84,22.67c.68,0,1.27-.36,1.57-.9l-.91-.52c-.11.24-.37.39-.67.39-.45,0-.79-.33-.79-.81s.33-.81.79-.81c.31,0,.56.15.67.39l.91-.53c-.3-.54-.9-.89-1.57-.89-1.06,0-1.85.8-1.85,1.84s.79,1.84,1.85,1.84M63.98,21.68c-.48,0-.83-.33-.83-.85s.35-.85.83-.85.83.33.83.85-.35.85-.83.85M64.81,19.09v.33c-.23-.27-.57-.42-1.04-.42-.91,0-1.66.8-1.66,1.84s.75,1.84,1.66,1.84c.47,0,.81-.16,1.04-.42v.33h1.04v-3.48h-1.04ZM55.77,19c-.46,0-.81.17-1,.42v-.33h-1.04v3.48h1.04v-1.9c0-.49.26-.72.65-.72.33,0,.61.2.61.63v1.98h1.05v-2.14c0-.94-.6-1.44-1.3-1.44M49.74,21.66c-.45,0-.8-.33-.8-.82s.35-.82.8-.82.8.33.8.82-.35.82-.8.82M49.74,22.67c1.02,0,1.85-.8,1.85-1.84s-.82-1.84-1.85-1.84-1.85.8-1.85,1.84.82,1.84,1.85,1.84M44.74,22.58h1.04v-3.48h-1.04v3.48ZM45.26,18.79c.34,0,.63-.29.63-.63s-.28-.63-.63-.63-.63.29-.63.63.29.63.63.63M40.9,20.11c0-.12.11-.19.29-.19.23,0,.37.12.47.31l.89-.48c-.29-.49-.79-.74-1.36-.74-.72,0-1.36.38-1.36,1.14,0,1.21,1.71,1,1.71,1.39,0,.14-.13.22-.38.22-.31,0-.5-.15-.59-.41l-.9.52c.27.56.8.83,1.5.83.75,0,1.45-.34,1.45-1.14,0-1.29-1.71-1.02-1.71-1.42M36.07,20.11c0-.12.11-.19.29-.19.23,0,.37.12.47.31l.89-.48c-.29-.49-.79-.74-1.36-.74-.72,0-1.37.38-1.37,1.14,0,1.21,1.71,1,1.71,1.39,0,.14-.12.22-.38.22-.31,0-.5-.15-.59-.41l-.91.52c.27.56.8.83,1.5.83.75,0,1.45-.34,1.45-1.14,0-1.29-1.71-1.02-1.71-1.42M31.73,22.58h1.05v-3.48h-1.05v3.48ZM32.25,18.79c.34,0,.63-.29.63-.63s-.29-.63-.63-.63-.63.29-.63.63.29.63.63.63M28.12,19c-.49,0-.81.18-1.01.46-.19-.29-.5-.46-.91-.46-.47,0-.77.18-.93.42v-.32h-1.04v3.48h1.04v-1.96c0-.41.2-.65.54-.65s.5.22.5.57v2.05h1.04v-1.96c0-.41.19-.65.54-.65s.5.22.5.57v2.05h1.04v-2.14c0-.87-.52-1.44-1.32-1.44M18.19,19.71v-.62h-1.04v3.48h1.04v-1.57c0-.69.61-.86,1.04-.79v-1.19c-.44,0-.9.22-1.04.69M13.77,19.09v1.9c0,.49-.26.72-.65.72-.33,0-.61-.2-.61-.63v-1.99h-1.04v2.14c0,.94.6,1.44,1.3,1.44.46,0,.81-.17,1-.42v.33h1.04v-3.48h-1.04ZM7.53,21.66c-.45,0-.8-.33-.8-.82s.35-.82.8-.82.8.33.8.82-.35.82-.8.82M7.53,22.67c1.02,0,1.85-.8,1.85-1.84s-.82-1.84-1.85-1.84-1.85.8-1.85,1.84.82,1.84,1.85,1.84M4.39,17.7h-1.27l-.93,1.88-.93-1.88H0l1.64,3v1.87h1.11v-1.87l1.64-3Z"/>
    <polygon class="cls-1" points="46.51 7.4 45.41 6.3 44.11 7.5 46.46 9.87 50.69 5.89 49.43 4.64 46.51 7.4"/>
  </g>
</svg>